<mxfile host="app.diagrams.net" modified="2024-04-26T14:13:18.865Z" agent="Mozilla/5.0 (Windows NT 10.0; Win64; x64) AppleWebKit/537.36 (KHTML, like Gecko) Chrome/124.0.0.0 Safari/537.36" etag="b2vA_UY38rmd8XY42IHK" version="24.3.0" type="google">
  <diagram name="Page-1" id="k3sXDtgjEVkQK_-TKzC0">
    <mxGraphModel grid="0" page="1" gridSize="10" guides="1" tooltips="1" connect="1" arrows="1" fold="1" pageScale="1" pageWidth="827" pageHeight="1169" math="0" shadow="0">
      <root>
        <mxCell id="0" />
        <mxCell id="1" parent="0" />
        <mxCell id="zn29FNoUNu5326R4AjcB-1" value="&lt;h2 style=&quot;text-align: justify;&quot;&gt;&lt;span style=&quot;font-weight: normal;&quot;&gt;User&lt;/span&gt;&lt;/h2&gt;" style="rounded=1;whiteSpace=wrap;html=1;" vertex="1" parent="1">
          <mxGeometry x="26" y="44" width="120" height="60" as="geometry" />
        </mxCell>
        <mxCell id="zn29FNoUNu5326R4AjcB-2" value="&lt;h2 style=&quot;text-align: justify;&quot;&gt;&lt;span style=&quot;font-weight: normal;&quot;&gt;Query&lt;/span&gt;&lt;/h2&gt;" style="rounded=1;whiteSpace=wrap;html=1;" vertex="1" parent="1">
          <mxGeometry x="272" y="49" width="136" height="55" as="geometry" />
        </mxCell>
        <mxCell id="zn29FNoUNu5326R4AjcB-3" value="&lt;h2 style=&quot;&quot;&gt;&lt;span style=&quot;font-weight: normal;&quot;&gt;Indexing Technique&lt;/span&gt;&lt;/h2&gt;" style="rounded=1;whiteSpace=wrap;html=1;align=center;" vertex="1" parent="1">
          <mxGeometry x="271" y="193" width="138" height="62" as="geometry" />
        </mxCell>
        <mxCell id="zn29FNoUNu5326R4AjcB-4" value="&lt;h2&gt;&lt;span style=&quot;font-weight: normal;&quot;&gt;Evolutionary Algorithm&lt;/span&gt;&lt;/h2&gt;" style="rounded=1;whiteSpace=wrap;html=1;" vertex="1" parent="1">
          <mxGeometry x="268" y="323" width="140" height="63" as="geometry" />
        </mxCell>
        <mxCell id="zn29FNoUNu5326R4AjcB-6" value="&lt;h2 style=&quot;&quot;&gt;&lt;span style=&quot;font-weight: normal;&quot;&gt;Webkb Dataset&lt;/span&gt;&lt;/h2&gt;" style="shape=cylinder3;whiteSpace=wrap;html=1;boundedLbl=1;backgroundOutline=1;size=15;align=center;" vertex="1" parent="1">
          <mxGeometry x="646" y="149" width="118" height="109" as="geometry" />
        </mxCell>
        <mxCell id="zn29FNoUNu5326R4AjcB-7" value="&lt;h2&gt;&lt;span style=&quot;font-weight: normal;&quot;&gt;Best Fitness Value Document&lt;/span&gt;&lt;/h2&gt;" style="rounded=1;whiteSpace=wrap;html=1;" vertex="1" parent="1">
          <mxGeometry x="267" y="468" width="146" height="60" as="geometry" />
        </mxCell>
        <mxCell id="zn29FNoUNu5326R4AjcB-11" value="" style="endArrow=classic;html=1;rounded=0;exitX=0.5;exitY=1;exitDx=0;exitDy=0;" edge="1" parent="1" source="zn29FNoUNu5326R4AjcB-2" target="zn29FNoUNu5326R4AjcB-3">
          <mxGeometry width="50" height="50" relative="1" as="geometry">
            <mxPoint x="387" y="315" as="sourcePoint" />
            <mxPoint x="337" y="187" as="targetPoint" />
          </mxGeometry>
        </mxCell>
        <mxCell id="zn29FNoUNu5326R4AjcB-12" value="" style="endArrow=classic;html=1;rounded=0;exitX=0.5;exitY=1;exitDx=0;exitDy=0;" edge="1" parent="1" source="zn29FNoUNu5326R4AjcB-3">
          <mxGeometry width="50" height="50" relative="1" as="geometry">
            <mxPoint x="387" y="315" as="sourcePoint" />
            <mxPoint x="340" y="323" as="targetPoint" />
          </mxGeometry>
        </mxCell>
        <mxCell id="zn29FNoUNu5326R4AjcB-18" value="" style="endArrow=classic;html=1;rounded=0;entryX=0.517;entryY=0.933;entryDx=0;entryDy=0;entryPerimeter=0;" edge="1" parent="1" target="zn29FNoUNu5326R4AjcB-1">
          <mxGeometry width="50" height="50" relative="1" as="geometry">
            <mxPoint x="337" y="530" as="sourcePoint" />
            <mxPoint x="92" y="100" as="targetPoint" />
            <Array as="points">
              <mxPoint x="337" y="625" />
              <mxPoint x="92" y="625" />
              <mxPoint x="88" y="362" />
            </Array>
          </mxGeometry>
        </mxCell>
        <mxCell id="zn29FNoUNu5326R4AjcB-19" value="&lt;h3 style=&quot;&quot;&gt;&lt;span style=&quot;font-weight: normal;&quot;&gt;Fetches Relevant webpage/ document&amp;nbsp;&lt;/span&gt;&lt;/h3&gt;" style="text;html=1;align=center;verticalAlign=middle;whiteSpace=wrap;rounded=0;" vertex="1" parent="1">
          <mxGeometry x="504" y="119" width="142" height="30" as="geometry" />
        </mxCell>
        <mxCell id="zn29FNoUNu5326R4AjcB-20" value="&lt;h3 style=&quot;text-align: justify;&quot;&gt;&lt;span style=&quot;font-weight: normal;&quot;&gt;Removes unnecessary elements&lt;/span&gt;&lt;/h3&gt;" style="text;html=1;align=center;verticalAlign=middle;whiteSpace=wrap;rounded=0;" vertex="1" parent="1">
          <mxGeometry x="344" y="118" width="121" height="46" as="geometry" />
        </mxCell>
        <mxCell id="zn29FNoUNu5326R4AjcB-21" value="&lt;h3 style=&quot;text-align: justify;&quot;&gt;&lt;span style=&quot;font-weight: normal;&quot;&gt;Uses Various Generations/ Crossover technique to optimize solution&lt;/span&gt;&lt;/h3&gt;" style="text;html=1;align=center;verticalAlign=middle;whiteSpace=wrap;rounded=0;" vertex="1" parent="1">
          <mxGeometry x="344" y="265" width="181" height="40" as="geometry" />
        </mxCell>
        <mxCell id="zn29FNoUNu5326R4AjcB-23" value="&lt;div style=&quot;text-align: justify;&quot;&gt;&lt;br&gt;&lt;/div&gt;&lt;h3 style=&quot;text-align: justify; forced-color-adjust: none; color: rgb(0, 0, 0); font-family: Helvetica; font-style: normal; font-variant-ligatures: normal; font-variant-caps: normal; letter-spacing: normal; orphans: 2; text-indent: 0px; text-transform: none; widows: 2; word-spacing: 0px; -webkit-text-stroke-width: 0px; white-space: nowrap; background-color: rgb(251, 251, 251); text-decoration-thickness: initial; text-decoration-style: initial; text-decoration-color: initial;&quot;&gt;&lt;span style=&quot;font-weight: normal;&quot;&gt;&lt;span style=&quot;forced-color-adjust: none;&quot;&gt;Generate best solution based&amp;nbsp;&lt;/span&gt;on fitness value&lt;/span&gt;&lt;/h3&gt;&lt;div style=&quot;text-align: justify;&quot;&gt;&lt;br&gt;&lt;/div&gt;" style="text;html=1;align=center;verticalAlign=middle;whiteSpace=wrap;rounded=0;" vertex="1" parent="1">
          <mxGeometry x="340" y="403" width="292" height="49" as="geometry" />
        </mxCell>
        <mxCell id="Ve7_DXTR_mg4KsQkz_1i-1" value="" style="endArrow=classic;html=1;rounded=0;" edge="1" parent="1">
          <mxGeometry width="50" height="50" relative="1" as="geometry">
            <mxPoint x="146" y="73.5" as="sourcePoint" />
            <mxPoint x="270" y="74" as="targetPoint" />
          </mxGeometry>
        </mxCell>
        <mxCell id="Ve7_DXTR_mg4KsQkz_1i-2" value="" style="endArrow=classic;html=1;rounded=0;" edge="1" parent="1">
          <mxGeometry width="50" height="50" relative="1" as="geometry">
            <mxPoint x="339.58000000000004" y="388" as="sourcePoint" />
            <mxPoint x="339.58000000000004" y="468" as="targetPoint" />
          </mxGeometry>
        </mxCell>
        <mxCell id="0ddVKOwpEnwXhddoXsVu-2" value="" style="endArrow=classic;html=1;rounded=0;" edge="1" parent="1">
          <mxGeometry width="50" height="50" relative="1" as="geometry">
            <mxPoint x="490" y="210" as="sourcePoint" />
            <mxPoint x="646" y="210" as="targetPoint" />
          </mxGeometry>
        </mxCell>
        <mxCell id="0ddVKOwpEnwXhddoXsVu-3" value="" style="endArrow=none;html=1;rounded=0;" edge="1" parent="1">
          <mxGeometry width="50" height="50" relative="1" as="geometry">
            <mxPoint x="409" y="73.58000000000001" as="sourcePoint" />
            <mxPoint x="490" y="74" as="targetPoint" />
          </mxGeometry>
        </mxCell>
        <mxCell id="0ddVKOwpEnwXhddoXsVu-4" value="" style="endArrow=none;html=1;rounded=0;" edge="1" parent="1">
          <mxGeometry width="50" height="50" relative="1" as="geometry">
            <mxPoint x="490" y="210" as="sourcePoint" />
            <mxPoint x="490" y="70" as="targetPoint" />
          </mxGeometry>
        </mxCell>
      </root>
    </mxGraphModel>
  </diagram>
</mxfile>
